<svg width="34" height="34" viewBox="0 0 34 34" fill="none" xmlns="http://www.w3.org/2000/svg">
<circle cx="17" cy="17" r="17" fill="#01B8ED"/>
<path d="M24.3927 24.0715C24.7974 24.0715 25.148 23.9379 25.446 23.6741L20.3463 18.5742C20.2239 18.6618 20.1054 18.747 19.9933 18.828C19.6117 19.1092 19.3019 19.3286 19.0641 19.4858C18.8263 19.6434 18.5099 19.804 18.1149 19.968C17.7197 20.1322 17.3515 20.214 17.0099 20.214H16.9999H16.9899C16.6483 20.214 16.2801 20.1322 15.8849 19.968C15.4897 19.804 15.1733 19.6434 14.9357 19.4858C14.6979 19.3286 14.3883 19.1092 14.0065 18.828C13.9001 18.75 13.7821 18.6644 13.6545 18.5728L8.5538 23.6741C8.85181 23.9379 9.20263 24.0715 9.60721 24.0715H24.3927Z" fill="white"/>
<path d="M9.01462 15.3628C8.63301 15.1084 8.29461 14.817 8 14.4888V22.2478L12.4948 17.753C11.5956 17.1252 10.437 16.3294 9.01462 15.3628Z" fill="white"/>
<path d="M24.9956 15.3628C23.6274 16.2888 22.4646 17.086 21.507 17.7548L26 22.248V14.4888C25.7119 14.8104 25.3772 15.1016 24.9956 15.3628Z" fill="white"/>
<path d="M24.3928 9.92855H9.6073C9.09148 9.92855 8.69491 10.1027 8.41709 10.4507C8.13905 10.7989 8.00026 11.2343 8.00026 11.7565C8.00026 12.1783 8.18444 12.6354 8.55265 13.1278C8.92086 13.62 9.31266 14.0066 9.72786 14.2878C9.95547 14.4486 10.6419 14.9258 11.7871 15.7192C12.4053 16.1476 12.9429 16.521 13.4049 16.8432C13.7987 17.1176 14.1383 17.3552 14.4187 17.5524C14.4509 17.575 14.5015 17.6112 14.5687 17.6592C14.6411 17.7112 14.7327 17.7772 14.8457 17.8588C15.0633 18.0162 15.2441 18.1434 15.3881 18.2406C15.5319 18.3378 15.7061 18.4464 15.9105 18.567C16.1147 18.6875 16.3073 18.778 16.4881 18.8382C16.6689 18.8984 16.8363 18.9286 16.9903 18.9286H17.0003H17.0103C17.1643 18.9286 17.3317 18.8984 17.5125 18.8382C17.6933 18.778 17.8857 18.6876 18.0901 18.567C18.2943 18.4464 18.4683 18.3376 18.6126 18.2406C18.7565 18.1434 18.9373 18.0162 19.155 17.8588C19.2678 17.7772 19.3594 17.7112 19.4317 17.6594C19.499 17.6112 19.5496 17.5752 19.5819 17.5524C19.8004 17.4004 20.1408 17.1638 20.5984 16.846C21.4312 16.2674 22.6576 15.4158 24.2828 14.2878C24.7716 13.9464 25.18 13.5344 25.5082 13.0524C25.8358 12.5704 26.0001 12.0648 26.0001 11.5358C26.0001 11.0938 25.8408 10.7155 25.523 10.4005C25.2048 10.0859 24.8281 9.92855 24.3928 9.92855Z" fill="white"/>
</svg>
